<svg xmlns="http://www.w3.org/2000/svg" width="512" height="768" viewBox="0 0 512 768"><path d="M 412 459 L 412 513 L 422 513 L 423 493 L 429 494 L 439 513 L 449 513 L 439 493 L 448 482 L 449 474 L 446 466 L 437 459 Z" fill="#2b2118" fill-rule="evenodd"/>
<path d="M 369 459 L 368 512 L 400 513 L 399 503 L 379 502 L 380 491 L 397 491 L 397 481 L 380 481 L 379 470 L 398 469 L 400 460 Z" fill="#2b2118" fill-rule="evenodd"/>
<path d="M 320 459 L 319 513 L 330 513 L 330 496 L 334 491 L 348 513 L 360 513 L 360 510 L 342 483 L 358 459 L 346 459 L 331 479 L 329 478 L 329 460 Z" fill="#2b2118" fill-rule="evenodd"/>
<path d="M 231 459 L 225 472 L 212 513 L 223 513 L 227 502 L 244 502 L 248 513 L 259 513 L 260 511 L 244 460 Z" fill="#2b2118" fill-rule="evenodd"/>
<path d="M 167 459 L 167 512 L 178 513 L 178 494 L 184 493 L 194 513 L 205 513 L 195 493 L 204 482 L 204 471 L 201 465 L 192 459 Z" fill="#2b2118" fill-rule="evenodd"/>
<path d="M 119 459 L 118 468 L 120 470 L 133 471 L 133 513 L 144 513 L 144 470 L 157 469 L 158 460 Z" fill="#2b2118" fill-rule="evenodd"/>
<path d="M 284 458 L 276 461 L 269 468 L 265 479 L 265 494 L 273 509 L 283 514 L 294 514 L 301 511 L 307 505 L 309 496 L 299 496 L 291 503 L 283 502 L 277 494 L 277 478 L 285 469 L 293 470 L 298 476 L 309 475 L 307 467 L 300 460 L 295 458 Z" fill="#2b2118" fill-rule="evenodd"/>
<path d="M 412 368 L 410 412 L 411 437 L 450 437 L 451 424 L 424 423 L 425 409 L 447 408 L 447 397 L 426 397 L 424 395 L 424 383 L 450 382 L 451 369 Z" fill="#2b2118" fill-rule="evenodd"/>
<path d="M 357 369 L 357 437 L 397 437 L 397 424 L 370 423 L 371 409 L 393 409 L 393 397 L 371 396 L 370 383 L 396 382 L 397 369 Z" fill="#2b2118" fill-rule="evenodd"/>
<path d="M 346 369 L 315 368 L 305 370 L 306 437 L 319 437 L 320 410 L 342 409 L 341 397 L 319 396 L 319 383 L 345 382 Z" fill="#2b2118" fill-rule="evenodd"/>
<path d="M 294 369 L 254 369 L 255 437 L 268 436 L 269 410 L 291 409 L 290 398 L 268 397 L 267 383 L 293 382 Z" fill="#2b2118" fill-rule="evenodd"/>
<path d="M 206 367 L 193 373 L 187 380 L 182 395 L 182 413 L 185 422 L 195 433 L 205 437 L 221 437 L 228 434 L 235 427 L 240 414 L 240 390 L 237 381 L 228 371 L 217 367 Z" fill="#2b2118" fill-rule="evenodd"/>
<path d="M 143 367 L 131 371 L 122 380 L 117 393 L 117 412 L 121 423 L 130 433 L 140 437 L 154 437 L 165 432 L 173 420 L 170 418 L 159 417 L 153 424 L 150 425 L 139 423 L 134 418 L 131 411 L 131 392 L 134 386 L 141 380 L 153 381 L 158 386 L 159 390 L 173 390 L 170 379 L 165 373 L 155 368 Z" fill="#2b2118" fill-rule="evenodd"/>
<path d="M 244 300 L 242 303 L 242 329 L 246 332 L 272 331 L 274 328 L 274 302 L 272 300 Z" fill="#2b2118" fill-rule="evenodd"/>
<path d="M 314 272 L 311 276 L 311 328 L 313 331 L 340 331 L 343 328 L 343 276 L 340 272 Z" fill="#2b2118" fill-rule="evenodd"/>
<path d="M 297 235 L 285 221 L 279 219 L 229 276 L 211 293 L 228 294 L 237 292 L 262 279 L 283 259 L 293 245 Z" fill="#2b2118" fill-rule="evenodd"/>
<path d="M 384 200 L 382 203 L 382 328 L 385 331 L 410 331 L 413 328 L 413 202 L 410 199 Z" fill="#2b2118" fill-rule="evenodd"/>
<path d="M 431 107 L 425 101 L 420 99 L 406 99 L 395 108 L 392 123 L 396 133 L 334 218 L 323 217 L 318 219 L 297 197 L 301 190 L 301 181 L 299 175 L 293 168 L 282 164 L 274 165 L 268 168 L 260 182 L 260 189 L 263 199 L 210 259 L 207 264 L 209 274 L 215 275 L 276 206 L 287 207 L 308 229 L 307 243 L 310 250 L 316 256 L 323 259 L 332 259 L 339 256 L 348 244 L 347 225 L 408 141 L 422 139 L 432 129 L 434 114 Z" fill="#2b2118" fill-rule="evenodd"/>
<path d="M 266 81 L 263 81 L 264 96 L 262 116 L 255 143 L 246 161 L 224 192 L 217 205 L 210 226 L 208 245 L 251 196 L 250 183 L 252 175 L 256 167 L 268 156 L 283 154 L 296 158 L 306 167 L 310 179 L 313 181 L 314 165 L 312 149 L 304 123 L 291 101 L 278 88 Z" fill="#2b2118" fill-rule="evenodd"/>
<path d="M 235 76 L 221 79 L 206 86 L 196 93 L 182 107 L 167 129 L 159 147 L 152 171 L 148 206 L 150 228 L 155 246 L 168 270 L 181 282 L 196 289 L 191 266 L 191 243 L 195 218 L 206 190 L 229 156 L 240 134 L 246 115 L 251 78 Z" fill="#2b2118" fill-rule="evenodd"/>
</svg>