<svg xmlns="http://www.w3.org/2000/svg" width="512" height="768" viewBox="0 0 512 768"><path d="M 374 578 L 372 580 L 372 631 L 383 631 L 383 614 L 389 613 L 400 632 L 412 632 L 401 612 L 408 605 L 410 600 L 410 591 L 408 586 L 399 579 Z" fill="#2b2118" fill-rule="evenodd"/>
<path d="M 328 578 L 327 631 L 360 632 L 360 622 L 340 622 L 338 620 L 339 610 L 357 609 L 357 602 L 355 600 L 341 601 L 338 598 L 338 590 L 358 589 L 359 579 Z" fill="#2b2118" fill-rule="evenodd"/>
<path d="M 276 579 L 276 632 L 287 631 L 287 615 L 291 610 L 306 632 L 317 632 L 317 627 L 300 603 L 300 600 L 316 579 L 304 578 L 288 599 L 286 598 L 286 579 Z" fill="#2b2118" fill-rule="evenodd"/>
<path d="M 238 578 L 231 581 L 223 590 L 220 599 L 221 615 L 225 623 L 232 630 L 240 633 L 254 632 L 264 624 L 266 617 L 256 615 L 248 622 L 241 622 L 233 614 L 232 600 L 235 593 L 242 588 L 248 588 L 255 594 L 265 593 L 266 591 L 264 586 L 255 579 Z" fill="#2b2118" fill-rule="evenodd"/>
<path d="M 186 578 L 183 582 L 167 632 L 178 632 L 182 621 L 201 621 L 205 632 L 216 632 L 217 631 L 199 580 L 197 578 Z" fill="#2b2118" fill-rule="evenodd"/>
<path d="M 120 579 L 120 631 L 122 633 L 131 632 L 131 614 L 137 613 L 147 632 L 158 632 L 148 612 L 157 603 L 158 593 L 155 585 L 147 579 Z" fill="#2b2118" fill-rule="evenodd"/>
<path d="M 74 578 L 72 579 L 72 588 L 85 589 L 85 631 L 87 633 L 95 633 L 96 590 L 98 588 L 110 588 L 110 579 Z" fill="#2b2118" fill-rule="evenodd"/>
<path d="M 303 489 L 263 490 L 264 555 L 277 555 L 278 529 L 300 528 L 300 516 L 278 515 L 278 502 L 303 501 Z" fill="#2b2118" fill-rule="evenodd"/>
<path d="M 250 489 L 210 489 L 210 555 L 224 555 L 225 529 L 247 528 L 247 516 L 225 516 L 224 503 L 226 501 L 249 501 Z" fill="#2b2118" fill-rule="evenodd"/>
<path d="M 411 489 L 370 490 L 371 555 L 412 555 L 412 543 L 384 542 L 385 528 L 408 527 L 407 516 L 385 516 L 384 503 L 386 501 L 411 501 Z" fill="#2b2118" fill-rule="evenodd"/>
<path d="M 317 489 L 316 554 L 357 555 L 358 543 L 331 542 L 332 528 L 352 528 L 354 526 L 353 516 L 331 515 L 331 502 L 356 501 L 356 489 Z" fill="#2b2118" fill-rule="evenodd"/>
<path d="M 161 488 L 150 492 L 140 502 L 136 512 L 135 526 L 141 543 L 149 551 L 161 556 L 172 556 L 186 550 L 194 541 L 198 531 L 198 513 L 193 501 L 188 495 L 174 488 Z" fill="#2b2118" fill-rule="evenodd"/>
<path d="M 97 488 L 83 495 L 75 505 L 72 513 L 72 529 L 76 541 L 85 551 L 97 556 L 107 556 L 118 552 L 125 545 L 127 538 L 114 536 L 106 543 L 100 543 L 94 540 L 90 536 L 86 525 L 88 512 L 91 507 L 98 502 L 108 503 L 114 508 L 126 507 L 127 504 L 123 497 L 117 492 L 107 488 Z" fill="#2b2118" fill-rule="evenodd"/>
<path d="M 216 227 L 200 230 L 180 238 L 163 250 L 153 260 L 142 276 L 136 290 L 132 306 L 131 328 L 133 342 L 138 358 L 150 379 L 162 392 L 176 402 L 196 411 L 217 415 L 236 415 L 260 409 L 283 396 L 300 379 L 309 365 L 316 348 L 320 323 L 319 307 L 316 294 L 309 277 L 299 262 L 284 247 L 272 239 L 254 231 L 235 227 Z" fill="#2b2118" fill-rule="evenodd"/>
<path d="M 353 204 L 340 208 L 325 220 L 316 240 L 316 258 L 323 279 L 345 319 L 357 335 L 364 336 L 380 315 L 398 281 L 405 263 L 407 245 L 402 227 L 390 213 L 370 204 Z" fill="#2b2118" fill-rule="evenodd"/>
<path d="M 113 262 L 103 285 L 98 309 L 99 344 L 106 370 L 116 390 L 130 409 L 149 426 L 175 441 L 193 447 L 210 450 L 239 450 L 256 447 L 271 442 L 289 433 L 307 420 L 326 401 L 357 413 L 368 414 L 381 409 L 390 397 L 391 382 L 386 372 L 377 365 L 349 354 L 351 339 L 339 322 L 339 333 L 335 354 L 332 363 L 317 390 L 303 406 L 287 419 L 257 433 L 237 437 L 213 437 L 181 429 L 165 421 L 147 407 L 126 381 L 119 367 L 113 347 L 111 335 L 111 313 L 113 299 L 119 280 L 126 266 L 139 248 L 155 233 L 172 222 L 197 212 L 214 209 L 235 209 L 264 216 L 286 227 L 307 244 L 309 228 L 290 214 L 275 206 L 258 200 L 239 196 L 210 196 L 187 201 L 166 210 L 145 224 L 125 244 Z" fill="#2b2118" fill-rule="evenodd"/>
</svg>