<?xml version="1.0" encoding="UTF-8"?>
<svg xmlns="http://www.w3.org/2000/svg" width="512" height="768" viewBox="0 0 512 768">
  <path d="M 388.79 546.44 L 388.79 600.44 L 398.79 600.44 L 399.79 580.44 L 405.79 581.44 L 415.79 600.44 L 425.79 600.44 L 415.79 580.44 L 424.79 569.44 L 425.79 561.44 L 422.79 553.44 L 413.79 546.44 Z" fill="currentColor" fill-rule="evenodd"/>
  <path d="M 345.79 546.44 L 344.79 599.44 L 376.79 600.44 L 375.79 590.44 L 355.79 589.44 L 356.79 578.44 L 373.79 578.44 L 373.79 568.44 L 356.79 568.44 L 355.79 557.44 L 374.79 556.44 L 376.79 547.44 Z" fill="currentColor" fill-rule="evenodd"/>
  <path d="M 296.79 546.44 L 295.79 600.44 L 306.79 600.44 L 306.79 583.44 L 310.79 578.44 L 324.79 600.44 L 336.79 600.44 L 336.79 597.44 L 318.79 570.44 L 332.79 551.44 L 334.79 546.44 L 322.79 546.44 L 307.79 566.44 L 305.79 565.44 L 305.79 547.44 Z" fill="currentColor" fill-rule="evenodd"/>
  <path d="M 207.79 546.44 L 201.79 559.44 L 188.79 600.44 L 199.79 600.44 L 203.79 589.44 L 220.79 589.44 L 222.79 591.44 L 224.79 600.44 L 235.79 600.44 L 236.79 598.44 L 220.79 547.44 Z" fill="currentColor" fill-rule="evenodd"/>
  <path d="M 143.79 546.44 L 143.79 599.44 L 154.79 600.44 L 154.79 581.44 L 160.79 580.44 L 170.79 600.44 L 181.79 600.44 L 171.79 580.44 L 179.79 572.44 L 180.79 569.44 L 180.79 558.44 L 177.79 552.44 L 168.79 546.44 Z" fill="currentColor" fill-rule="evenodd"/>
  <path d="M 95.79 546.44 L 94.79 555.44 L 96.79 557.44 L 109.79 558.44 L 109.79 600.44 L 120.79 600.44 L 120.79 557.44 L 133.79 556.44 L 134.79 547.44 Z" fill="currentColor" fill-rule="evenodd"/>
  <path d="M 260.79 545.44 L 252.79 548.44 L 245.79 555.44 L 241.79 566.44 L 241.79 581.44 L 245.79 591.44 L 249.79 596.44 L 259.79 601.44 L 270.79 601.44 L 277.79 598.44 L 283.79 592.44 L 285.79 583.44 L 275.79 583.44 L 271.79 588.44 L 267.79 590.44 L 259.79 589.44 L 253.79 581.44 L 253.79 565.44 L 255.79 561.44 L 261.79 556.44 L 269.79 557.44 L 274.79 563.44 L 285.79 562.44 L 285.79 559.44 L 283.79 554.44 L 276.79 547.44 L 271.79 545.44 Z" fill="currentColor" fill-rule="evenodd"/>
  <path d="M 388.79 455.44 L 386.79 499.44 L 387.79 524.44 L 426.79 524.44 L 427.79 511.44 L 400.79 510.44 L 401.79 496.44 L 423.79 495.44 L 423.79 484.44 L 402.79 484.44 L 400.79 482.44 L 400.79 470.44 L 426.79 469.44 L 427.79 456.44 Z" fill="currentColor" fill-rule="evenodd"/>
  <path d="M 333.79 456.44 L 333.79 524.44 L 373.79 524.44 L 373.79 511.44 L 346.79 510.44 L 347.79 496.44 L 369.79 496.44 L 369.79 484.44 L 347.79 483.44 L 346.79 470.44 L 372.79 469.44 L 373.79 456.44 Z" fill="currentColor" fill-rule="evenodd"/>
  <path d="M 322.79 456.44 L 291.79 455.44 L 281.79 457.44 L 282.79 524.44 L 295.79 524.44 L 296.79 497.44 L 318.79 496.44 L 317.79 484.44 L 295.79 483.44 L 295.79 470.44 L 321.79 469.44 Z" fill="currentColor" fill-rule="evenodd"/>
  <path d="M 270.79 456.44 L 230.79 456.44 L 231.79 524.44 L 244.79 523.44 L 245.79 497.44 L 267.79 496.44 L 266.79 485.44 L 244.79 484.44 L 243.79 470.44 L 269.79 469.44 Z" fill="currentColor" fill-rule="evenodd"/>
  <path d="M 182.79 454.44 L 169.79 460.44 L 163.79 467.44 L 158.79 482.44 L 158.79 500.44 L 161.79 509.44 L 171.79 520.44 L 181.79 524.44 L 197.79 524.44 L 204.79 521.44 L 211.79 514.44 L 216.79 501.44 L 216.79 477.44 L 213.79 468.44 L 204.79 458.44 L 193.79 454.44 Z" fill="currentColor" fill-rule="evenodd"/>
  <path d="M 119.79 454.44 L 107.79 458.44 L 98.79 467.44 L 93.79 480.44 L 93.79 499.44 L 97.79 510.44 L 106.79 520.44 L 116.79 524.44 L 130.79 524.44 L 141.79 519.44 L 145.79 515.44 L 149.79 507.44 L 146.79 505.44 L 135.79 504.44 L 129.79 511.44 L 120.79 512.44 L 115.79 510.44 L 110.79 505.44 L 107.79 498.44 L 107.79 479.44 L 110.79 473.44 L 117.79 467.44 L 129.79 468.44 L 134.79 473.44 L 135.79 477.44 L 149.79 477.44 L 149.79 474.44 L 146.79 466.44 L 141.79 460.44 L 131.79 455.44 Z" fill="currentColor" fill-rule="evenodd"/>
  <path d="M 220.79 387.44 L 218.79 390.44 L 218.79 416.44 L 222.79 419.44 L 248.79 418.44 L 250.79 415.44 L 250.79 389.44 L 248.79 387.44 Z" fill="currentColor" fill-rule="evenodd"/>
  <path d="M 290.79 359.44 L 287.79 363.44 L 287.79 415.44 L 289.79 418.44 L 316.79 418.44 L 319.79 415.44 L 319.79 363.44 L 316.79 359.44 Z" fill="currentColor" fill-rule="evenodd"/>
  <path d="M 273.79 322.44 L 261.79 308.44 L 255.79 306.44 L 205.79 363.44 L 187.79 380.44 L 204.79 381.44 L 213.79 379.44 L 227.79 373.44 L 238.79 366.44 L 259.79 346.44 L 269.79 332.44 Z" fill="currentColor" fill-rule="evenodd"/>
  <path d="M 360.79 287.44 L 358.79 290.44 L 358.79 415.44 L 361.79 418.44 L 386.79 418.44 L 389.79 415.44 L 389.79 289.44 L 386.79 286.44 Z" fill="currentColor" fill-rule="evenodd"/>
  <path d="M 407.79 194.44 L 401.79 188.44 L 396.79 186.44 L 382.79 186.44 L 371.79 195.44 L 369.79 199.44 L 368.79 210.44 L 372.79 220.44 L 310.79 305.44 L 299.79 304.44 L 294.79 306.44 L 273.79 284.44 L 277.79 277.44 L 277.79 268.44 L 275.79 262.44 L 269.79 255.44 L 258.79 251.44 L 250.79 252.44 L 244.79 255.44 L 236.79 269.44 L 236.79 276.44 L 239.79 286.44 L 186.79 346.44 L 183.79 351.44 L 183.79 357.44 L 185.79 361.44 L 191.79 362.44 L 252.79 293.44 L 263.79 294.44 L 284.79 316.44 L 283.79 330.44 L 286.79 337.44 L 292.79 343.44 L 299.79 346.44 L 308.79 346.44 L 315.79 343.44 L 321.79 337.44 L 324.79 331.44 L 324.79 319.44 L 322.79 315.44 L 323.79 312.44 L 384.79 228.44 L 398.79 226.44 L 408.79 216.44 L 410.79 210.44 L 410.79 201.44 Z" fill="currentColor" fill-rule="evenodd"/>
  <path d="M 242.79 168.44 L 239.79 168.44 L 240.79 183.44 L 238.79 203.44 L 231.79 230.44 L 222.79 248.44 L 200.79 279.44 L 193.79 292.44 L 186.79 313.44 L 184.79 332.44 L 227.79 283.44 L 226.79 270.44 L 228.79 262.44 L 232.79 254.44 L 244.79 243.44 L 251.79 241.44 L 259.79 241.44 L 272.79 245.44 L 282.79 254.44 L 286.79 266.44 L 289.79 268.44 L 290.79 252.44 L 288.79 236.44 L 280.79 210.44 L 267.79 188.44 L 254.79 175.44 Z" fill="currentColor" fill-rule="evenodd"/>
  <path d="M 211.79 163.44 L 197.79 166.44 L 182.79 173.44 L 172.79 180.44 L 158.79 194.44 L 143.79 216.44 L 135.79 234.44 L 128.79 258.44 L 124.79 293.44 L 126.79 315.44 L 131.79 333.44 L 139.79 350.44 L 144.79 357.44 L 157.79 369.44 L 172.79 376.44 L 167.79 353.44 L 167.79 330.44 L 171.79 305.44 L 175.79 292.44 L 182.79 277.44 L 205.79 243.44 L 216.79 221.44 L 222.79 202.44 L 227.79 165.44 Z" fill="currentColor" fill-rule="evenodd"/>
</svg>